/* XPM */
static const char * font_xpm[] = {
"325 39 64 1",
" 	c #FFFFFF",
".	c #2F2F2F",
"+	c #000000",
"@	c #585858",
"#	c #484848",
"$	c #090909",
"%	c #242424",
"&	c #6D6D6D",
"*	c #E6E6E6",
"=	c #B4B4B4",
"-	c #464646",
";	c #0D0D0D",
">	c #070707",
",	c #232323",
"'	c #717171",
")	c #F4F4F4",
"!	c #B8B8B8",
"~	c #151515",
"{	c #A2A2A2",
"]	c #1B1B1B",
"^	c #424242",
"/	c #C3C3C3",
"(	c #131313",
"_	c #7F7F7F",
":	c #F0F0F0",
"<	c #BDBDBD",
"[	c #828282",
"}	c #343434",
"|	c #DCDCDC",
"1	c #909090",
"2	c #7B7B7B",
"3	c #686868",
"4	c #292929",
"5	c #969696",
"6	c #CDCDCD",
"7	c #E2E2E2",
"8	c #555555",
"9	c #333333",
"0	c #9C9C9C",
"a	c #767676",
"b	c #3B3B3B",
"c	c #999999",
"d	c #1E1E1E",
"e	c #5C5C5C",
"f	c #DADADA",
"g	c #F9F9F9",
"h	c #8B8B8B",
"i	c #A7A7A7",
"j	c #AAAAAA",
"k	c #878787",
"l	c #D7D7D7",
"m	c #3F3F3F",
"n	c #4F4F4F",
"o	c #8F8F8F",
"p	c #505050",
"q	c #666666",
"r	c #ADADAD",
"s	c #EEEEEE",
"t	c #616161",
"u	c #D1D1D1",
"v	c #EBEBEB",
"w	c #C7C7C7",
"x	c #CBCBCB",
"y	c #B2B2B2",
"    .+@     #+++$%&*     =-;>,') !+++~-{     ]++++++]   ^+++++++    /#($._:  ]]    <+'  [++++++}    |+++++   {+1    2+3  4$       |++5   {++6 .+@   |+3   78(>90    4+++>%a:    =b$;#6   c+++>def    :[,>;}[g &+++++++++h 4$    {+5 e+6     ~~{+i      c+ja+i    5+kl>^     5+k m+++++++b                                            ",
"   7+((g    n+[oke>d)   h+,2h@>7 !+-ha4+p    ];kk[[[1   ^+_[k[[[   5+d2hq;r  ]]    /+a  /[[%+_[0    s[[kd+   i+1   h+t   4$       7+$m   #$+u .+>v  7+3  sd$'h.+5   4$oo_}+9   !+,k2(;l  5+8okp+(|   b+pk2#>v !k[k#+8[[[w .$    i+c j+h    6+tx+k      _+u),]:  v(.g a+y   :~%g {[[[k[#+t                                            ",
"   1+5+!    #+*   '+y  6+b)   f: <+2   3+1   ]d         -+:       l>.:   v|  ]]    <+'     ^+:          }+   {+5  o+@    .$       |+8+7 v>@+6 .;$k  |+&  _+0  )d;)  .;    ^+y  .$*  /+8  5+c   [+'  0+1    |g     1+i     .$    {+5 :+-    o+rs+q      e+g =+a  q+6  :~4g  a+=       :d]s                                            ",
"   ^4)$3    n+*   [+y  e+w       !+2   :$.   ]d         ^+:       3+=        ]]    <+'     -+:          }+   i+1 c+p     .$       7+2.h 5,h+6 .~qd  7+3  .>g   2+y  .;    o+o f+p    4$g 5+0   x+p  &+f           o+i     4$    {+c  ^$)   ->: ~# :+>g m,   p>fx+a    0+5 7$#        3+r                                             ",
"  s>a #d    #+6*fj~d:  ];        <+_    }+s  ]]f|ff|v   ^+)       4>g        ]]|f|fi+a     ^+)          b+   {+5i+#g     4$       |+2h} m2h+6 .]u+y |+& g+.    i+k  4;    q+0 j+_    @+u c+c   r+3  o+k           o+i     .$    {+5  h+<  g$-  b4 <++x d-   *;#}%)     }(s@>|       <+@                                              ",
"  {+/ 5+6   #+++++^*  )+.        <+2    8+6  ]++++++e   ^+u||ff:  >,   *|7*  ]+++++++'     ^+)          }+   {+-++l      4;       7+27+/+uo+u .~ b- |+3 7+^    !+3  .;|7u[+;v 1+5    3+< 5+h|fjd(f  s]+}_!)       o+i     .$    {+5  l+a  <+1  t$ h4,5g>&    o++<      x+n+2       )%]:                                              ",
"  8(g 7+_   n+{yj2;m: s+b        !+2    e+/  ]~jrjjj6   -++++++1 )+4   %++b  ](jjjj[+a     -+:          b+   {++}>m      4$       |+2 bd4 h+6 .~ {+|7+3 f+#    /+t  4+++++%/  h+c    '+y 5+++++8|    v&d++~{      o+i     4$    i+5   ,9  _+|  h+s8t@t7+1    y+>|       e+d:       '+y                                               ",
" g;#*77,.   #+*   r+[ )+.        <+2    8+6  ]d         ^+ijjjjf  +%   <r$b  ]]    <+'     -+:          b+   {+b)'+o     .$       |+2 1+_ h+6 .~ g~'|+& 7+^    !+3  4$rr=f    1+5    3+/ 5+&r{b>y       |c,+r     o+i     4;    i+c   &+s }4   r+6,c1./+!   :,,(#       /+'       w+e                                                ",
" =+++++++|  n+*   )+^  ];        <+2    }+s  ]d         -+:       %$     (b  ]]    <+a     ^+)          }+   {+1 ),$l    4;       7+2 s{* h+6 9~  2(f+& g+.    i+k  4(        r+_    8+u 5+c  )%]:        *>#     o+i     .$    {+c   !+j:>'   l+0+uw>c+7   &+!5+r      /+'      g4d:                                                ",
" 3+ry=y1+1  n+v   g+9  @+w       !+2   :$4   ],         ^+)       q+<    ;b  ]]    <+'     ^+)          %;   i+1  /+9g   4$       |+2     o+u .~  |+_+3  4$g   a+y  4;        f+p    4;g c+c   i+k         ~.     o+i     m>    0+i   g;qr+<   g+#;gg$#$   x+8  .]:     /+a      2+!                                                 ",
" ]}    g$^  #+*   r+@  x+b)   |: !+2   q+1   ]d         ^+:       l>})   ;b  ]]    /+a     -+:    =l   v>}   {+5   3+[   .$       7+2     h+6 9~   #]+3  2+0  ),;)  .(         .$*  w+@  5+0   g,~: x7    w+8     o+i     3+/   t+u    p,q(g    %>^  }$.  g.(*  !+'     /+'     6+q                                                  ",
"x+a     ->s n+_ok@>$u   k+,2oe>| !+-h'%+8    ];k[[[k[g  -+:        1+%_on+#  ]]    <+'  /[[,+_[0  h+ph[%+0   i+1   :,>6  .>[[[[[kf|+2     h+6 .]   y++&  vd$&h9+1   4;         !>dk2(;|  c+c    5+o 1>-[ht$;u     o+i     l$;ahn+#     c+(8     #+2  &+8  [+5    n+l    /+'     }+2[[[[kk                                            ",
"2+=     h+{ #++++]@l     =^(+,a) !+++(-{     ]+++++++s  ^+)         !-;>4_)  ]]    /+'  k++++++9  |a.;$45    {+5    !+4g 4+++++++y7+2     h+u .~    ,+3   |@($.0    .;          =b$++x   5+c    )~~)7'.;>,86      o+i      up(+,_g     v++{     '+r  i+_ f$}     f>b    /+a     ;+++++++>                                            ",
"                                                                                                                                                                                   !$b:                                                                                                                                              ",
"                                                                                                                                                                                    <;9s                                                                                                                                             ",
"                                                                                                                                                                                                                                                                                                                                     ",
"                                                                                                                                                                                                                                                                                                                                     ",
"                                                                                                                                                                                                                                                                                                                                     ",
"                                                                                                                                                                                                                                                                                                                                     ",
"                                                                                                                                                                                                                                                                                                                                     ",
"                                                                                                                                                                                                     g                                                           g                                                                   ",
"                                                                                                                                                            /+x                                      2+(8:                   pm                    &+         5%>$                                                                   ",
"  g_d>45     kn]+-     =8d>dpx    c-]>dpw        m+t    >+++++n     /#(+,h   d+++++++{   ym~$.k)    o4>;nl                                                  9p                   !++s     v_.>]#6    7<'+[        -+e        l+j        9t w+u     3+        v+.rx                 8+n      :q]>,1                                   ",
"  t+@1m+h    +~n+^     d~@2e>$u   ^^'_q(><      {>+t    >.[[[kj    j+d&_q@   1[k[[[%+7  i+%o5p+p   a+m1_~~7                                                r+/         o'        !++s     2;thq>(*      >8       a+-+1        -4       :>0 h;    w-$+,n<     <+5     j4$-|        h+-+[     8>a0__                           *3d+;8| ",
" u+p  g.;:   |  +^     jg   =+-        u+-     s~a+t    $@        :(b)            );-   ^+7   }+s s>.g  u+q                                                #,          [q        !++s     xs   h+c      (n      j+_ 3+/       i+w      <+f ##   6>n'908[     =+{    l>h/8%       =+& a+y    (e                      l6      6(.c<0%d:",
" _+!v9 1+j     g+-           $d        )>^     q}u+q    >8s7g     {+w :g          c+j   n+:   #+) /+a    4]                y(#                    :       :>3       x  a@  6)    <++:          1+0      (n     l$q   n(7      s+'   gvv2(vv(2v) e(gj-  g     !+{    c}  v+*     |(@   t;f   %m                      #b     s]pg   :([",
" n+vr+|/+2     g+^          :>m     7|<#+y    x+xl+t    >>++;&)   3$w4++^f        }~g   w$8u|1>2  !+[    }+v               @++7                 gb+h      =+{      v%]&#}',,f    u+>          6(9)      ]9    s%p    gm9)      %.   /+++++++++2 #d j^        {+r    w$w)[~   7!).-     #4:  h+=                     n}     _]:     3m",
" }+ o+<f+e      +^          k+{     ]++dw     9@ l+q    mk{h9+-   #((ej_$]s      6+&     6,++>c   |+#   s$+l               !d8                  7++}      h+/        =#++bj      :+,         w;9v       8+2|)                  #>   s!=+a!q$!!| [+[{^      )ub>7     _>+]/l[}90            gq+~7                    #b     d[  5%+ma.",
" .$ o+=7+@     g+^         />n      =r[]]u   1$7 u+t         m+<  ^+@   1+1      3+6    l]4cj8+5   -+[fwm(+6                                     p;{      a+l         c$(_        ~m        :~.s        :-++>                  @+s    <+| n#    )#++(&u   [++;!       :ia%}h|              e]!~bg  '= :7|||7|*  vff|^.f|fv7+w y+a!2+4",
" }> r+xf+e      +^        u(b)         7;b  v;_  u+q         j+2  -+=   7+@     )(9     m;v   #>7  vp+++#a+f                                              a+l        7;0=>u       be        !+5         o+miw                  8+s g::&dss;h:)    <8$>+5  */0]%g    |3dm17[]d1            x+r <+q  (1 c++++++.  q++++++++n/+s ^#   84",
" p+v*]gw+2     g+-       f]4s           -+) t(f*7<+@7)       x+3  @+x   :+#     {+1    g+^    5+i    |<f e>)                                              h+w        #t  a9g      21        xp/         .d)                    ->  <+++++++++_     j-sb>7    o+<    /cv  c~ri;{           [+g  h+0s+= 7y=y==y/  6jrj9%jjjw=+g ,[   o4",
" _+! g o+j     g+-      |d.v            m+v ^++++++++i       i+[  k+r   |+e     b>s    s+b    1+c       )]9                !d8                            =+{       g_)   [:                            ~n                     ,9  s<r+k<e]<<|     j- i+y    =+j         #k  _n           2+|   p>e~)               #b    w+v ^q   '4",
" u+p  g.;s     g+^     *,.v      sf    w>%  wyyyy5+-y* fg   :9+x  l+n   k+{    l+8      d>|   ^+x  g    '+1     x,-g       @++7       x3<        c#y      :>q                    u].s       l3w         (n                    s+&    y+* -8     7  j^ h+6    =+{         ^k  2#           !+@   :,+5                n}    7+w 0$= <;.",
"  t+@1^+o    {[[+,[[w  .+'[k[[[  l+m'_p++y       l+q   2~8aq]+q    q+n13+.     &+!      y+][1^+e   r}&2b+^g     '++6       =(ng       }+(g       >+(       #d                    k++y       p+}         (n                    0+w    '% g$1     m#{k}0(m     =+{         1(yj({            3+bhcp+$@                #}     d_  [$+d84",
"  g_d>%5     }++++++h  >+++++++  s'};+~nw        u+t   !^~>$9c     g[,>~t*    )(d        <m;;.og   um$>4k)      /~b)                  _>+*       @>+v      y+/                   ud4s       c;k         >8                    -.     }q w+u     yp]++]3:     /+5          2~]k              0.>;n/[+j                      _~s   v :7",
"                                                                                                                                       />g        j>        9n                                       gs5+[                   u+j                   3+        *+^|g                                                         :,#g      ",
"                                                                                                                                       8p         -8        /+6                                      2++9v                   pm                    3+         _>+$                                                          l]4i7)u7 ",
"                                                                                                                                     v@,7       s@d7                                                 76*                                           0p          )ux                                                           v3~+++_ ",
"                                                                                                                                     *av        j@7                                                                                                                                                                             |x7  "};
