/* XPM */
static char * square_xpm[] = {
"25 25 15 1",
" 	c #FEFEFE",
".	c #FFFFFF",
"+	c #FCFCFC",
"@	c #FBFBFB",
"#	c #FDFDFD",
"$	c #757575",
"%	c #737373",
"&	c #747474",
"*	c #727272",
"=	c #F9F9F9",
"-	c #F5F5F5",
";	c #FAFAFA",
">	c #767676",
",	c #F6F6F6",
"'	c #F8F8F8",
" .  ++@+@@@@@@@@@@@@@@@@@",
"   . . .    ##+++########",
"  #  #  .                ",
"    $%&&&&&&&&&&&&&&&&&&&",
"    &%$&&&&&&&&&&&&&&&&&&",
"  .+*&&&&&&&&&&&&&&&&&&&&",
" .#=$%$%&&&&&&&&&&&&&&&&&",
"  .-%&&&%&&&&&&&&&&&&&&&&",
"   .&&&&&&&&&&&&&&&&&&&&&",
"  .;&%&&&&&&&&&&&&&&&&&&&",
" .#@%$&%&&&&&&&&&&&&&&&&&",
" #.;$&&&&&&&&&&&&&&&&&&&&",
"  .;>&$%&&&&&&&&&&&&&&&&&",
"  #.%&>%&&&&&&&&&&&&&&&&&",
"    &$&&&&&&&&&&&&&&&&&&&",
" . ,&&&&&&&&&&&&&&&&&&&&&",
"  .@$&$&&&&&&&&&&&&&&&&&&",
"  . &&&&%&&&&&&&&&&&&&&&&",
"  ##&&%$%&&&&&&&&&&&&&&&&",
". @ &&&$&&&&&&&&&&&&&&&&&",
"  @+&&$&&&&&&&&&&&&&&&&&&",
" ;'=&&$&&&&&&&&&&&&&&&&&&",
" -#+&$&&%&&&&&&&&&&&&&&&&",
" ,..&&&*&&&&&&&&&&&&&&&&&",
" ==+%&&&&&&&&&&&&&&&&&&&&"};
