/* XPM */
static const char *square_xpm[] = {
/* columns rows colors chars-per-pixel */
"75 34 50 1 ",
"  c #6B6B6B",
". c #6C6C6C",
"X c #6E6E6E",
"o c #6F6F6F",
"O c #707070",
"+ c #717171",
"@ c #727272",
"# c #737373",
"$ c #747474",
"% c #757575",
"& c #767676",
"* c #787878",
"= c #7A7A7A",
"- c #7B7B7B",
"; c #7C7C7C",
": c #7D7D7D",
"> c #8B8B8B",
", c #8D8D8D",
"< c #8E8E8E",
"1 c #959595",
"2 c #9E9E9E",
"3 c #9F9F9F",
"4 c #A0A0A0",
"5 c #A1A1A1",
"6 c #B3B3B3",
"7 c #CCCCCC",
"8 c #CDCDCD",
"9 c #CECECE",
"0 c #CFCFCF",
"q c #D0D0D0",
"w c #D1D1D1",
"e c #D2D2D2",
"r c #DADADA",
"t c #EFEFEF",
"y c #F0F0F0",
"u c #F1F1F1",
"i c #F2F2F2",
"p c #F3F3F3",
"a c #F4F4F4",
"s c #F5F5F5",
"d c #F6F6F6",
"f c #F7F7F7",
"g c #F8F8F8",
"h c #F9F9F9",
"j c #FAFAFA",
"k c #FBFBFB",
"l c #FCFCFC",
"z c #FDFDFD",
"x c #FEFEFE",
"c c #FFFFFF",
/* pixels */
"xxxxxxxxxxxxxxxxxxjjjxxxjjjjjjjjjjjjjjjjjjjjjjjjjjjjjjjjjjjjjjjjjjjjjjjjjjj",
"xxxxxxxxxxxxxxxxxxxxxxxxxxxxxxxxxxxxxxxxxxxxxxjjjjxxxxxxxxxxxxxxxxxxxxxxxxx",
"xxxxxxxxxxxxxxxxxxxxxxxxxxxxxxxxxxxxxxxxxxxxxxxxxxxxxxxxxxxxxxxxxxxxxxxxxxx",
"xxxxxxxxxxxjsyytyyyyyyyyyyyyyyyyyyyyyyyyyyyyyyyyyyyyyyyyyyyyyyyyyyyyyyyyyyy",
"xxxxxxxxxxjr61>><<<<<<<<<<<<<<<<<<<<<<<<<<<<<<<<<<<<<<<<<<<<<<<<<<<<<<<<<<<",
"xxxxxxxxxxsw2* ...OOOOO.OOOO..OO...O.OO.OO......OOOO..OO...O.OO..O......OOO",
"xxxxxxxxxxsw4*.OO%%%%%%%%%%%%%%%%%%%%%%%%%%%%%%%%%%%%%%%%%%%%%%%%%%%%%%%%%%",
"xxxxxxxxxxs02*.O%%%%%%%%%%%%%%%%%%%%%%%%%%%%%%%%%%%%%%%%%%%%%%%%%%%%%%%%%%%",
"xxxxxxxxxxy04;OO%%%%%%%%%%%%%%%%%%%%%%%%%%%%%%%%%%%%%%%%%%%%%%%%%%%%%%%%%%%",
"xxxxxxxxxxy02*OO%%%%%%%%%%%%%%%%%%%%%%%%%%%%%%%%%%%%%%%%%%%%%%%%%%%%%%%%%%%",
"xxxxxxxxxxy02*.O%%%%%%%%%%%%%%%%%%%%%%%%%%%%%%%%%%%%%%%%%%%%%%%%%%%%%%%%%%%",
"xxxxxxxxxxsw4;.O%%%%%%%%%%%%%%%%%%%%%%%%%%%%%%%%%%%%%%%%%%%%%%%%%%%%%%%%%%%",
"xxxxxxxxxxsw4;OOOO%%%%%%%%%%%%%%%%%%%%%%%%%%%%%%%%%%%%%%%%%%%%%%%%%%%%%%%%%",
"xxxxxxxxxxy02;OO%%%%%%%%%%%%%%%%%%%%%%%%%%%%%%%%%%%%%%%%%%%%%%%%%%%%%%%%%%%",
"xxxxxxxxxxs02*OO%%%%%%%%%%%%%%%%%%%%%%%%%%%%%%%%%%%%%%%%%%%%%%%%%%%%%%%%%%%",
"xxxxxxxxxxy04;OO%%%%%%%%%%%%%%%%%%%%%%%%%%%%%%%%%%%%%%%%%%%%%%%%%%%%%%%%%%%",
"xxxxxxxxxxy04;OO%%%%%%%%%%%%%%%%%%%%%%%%%%%%%%%%%%%%%%%%%%%%%%%%%%%%%%%%%%%",
"xxxxxxxxxxsw4;OO%%%%%%%%%%%%%%%%%%%%%%%%%%%%%%%%%%%%%%%%%%%%%%%%%%%%%%%%%%%",
"xxxxxxxxxxsw4*.O%%%%%%%%%%%%%%%%%%%%%%%%%%%%%%%%%%%%%%%%%%%%%%%%%%%%%%%%%%%",
"xxxxxxxxxxsw4;OO%%%%%%%%%%%%%%%%%%%%%%%%%%%%%%%%%%%%%%%%%%%%%%%%%%%%%%%%%%%",
"xxxxxxxxxxy02;OO%%%%%%%%%%%%%%%%%%%%%%%%%%%%%%%%%%%%%%%%%%%%%%%%%%%%%%%%%%%",
"xxxxxxxxxxy02;OO%%%%%%%%%%%%%%%%%%%%%%%%%%%%%%%%%%%%%%%%%%%%%%%%%%%%%%%%%%%",
"xxxxxxxxxxsw4;OO%%%%%%%%%%%%%%%%%%%%%%%%%%%%%%%%%%%%%%%%%%%%%%%%%%%%%%%%%%%",
"xxxxxxxxxxsw4;OO%%%%%%%%%%%%%%%%%%%%%%%%%%%%%%%%%%%%%%%%%%%%%%%%%%%%%%%%%%%",
"xxxxxxxxxxsw4;OO%%%%%%%%%%%%%%%%%%%%%%%%%%%%%%%%%%%%%%%%%%%%%%%%%%%%%%%%%%%",
"xxxxxxxxxxsw4;OO%%%%%%%%%%%%%%%%%%%%%%%%%%%%%%%%%%%%%%%%%%%%%%%%%%%%%%%%%%%",
"xxxxxxxxxxsw4;OO%%%%%%%%%%%%%%%%%%%%%%%%%%%%%%%%%%%%%%%%%%%%%%%%%%%%%%%%%%%",
"xxxxxxxjxxsw4;OO%%%%%%%%%%%%%%%%%%%%%%%%%%%%%%%%%%%%%%%%%%%%%%%%%%%%%%%%%%%",
"xxxxxjjjxxy02;OO%%%%%%%%%%%%%%%%%%%%%%%%%%%%%%%%%%%%%%%%%%%%%%%%%%%%%%%%%%%",
"xxxjjjjjxxy02;OO%%%%%%%%%%%%%%%%%%%%%%%%%%%%%%%%%%%%%%%%%%%%%%%%%%%%%%%%%%%",
"xxjjssjxxxsw4;OO%%%%%%%%%%%%%%%%%%%%%%%%%%%%%%%%%%%%%%%%%%%%%%%%%%%%%%%%%%%",
"xxjjsjjxxxsw4;OO%%%%%%%%%%%%%%%%%%%%%%%%%%%%%%%%%%%%%%%%%%%%%%%%%%%%%%%%%%%",
"xxxjjjjxxxsw4;.O%%%%%%%%%%%%%%%%%%%%%%%%%%%%%%%%%%%%%%%%%%%%%%%%%%%%%%%%%%%",
"xxxjjjjjxxsw2*.O%%%%%%%%%%%%%%%%%%%%%%%%%%%%%%%%%%%%%%%%%%%%%%%%%%%%%%%%%%%"
};
